{"title":"Blood.Out.2011.720p.BRRip.x264.Feel-Free","uid":6325830,"size":2244887847,"categoryP":"video","categoryS":"hd___movies","magnet":"?xt=urn:btih:ef05ccfb2c8b9a983e5fd6d0e81edfb136868e2a&amp;dn=Blood.Out.2011.720p.BRRip.x264.Feel-Free&amp;tr=udp%3A%2F%2Ftracker.openbittorrent.com%3A80&amp;tr=udp%3A%2F%2Fopen.demonii.com%3A1337&amp;tr=udp%3A%2F%2Ftracker.coppersurfer.tk%3A6969&amp;tr=udp%3A%2F%2Fexodus.desync.com%3A6969","seeders":0,"leechers":0,"uploader":"hiest","files":-1,"time":1303114225,"description":"######## ######## ######## ##          ######## ########  ######## ######## \n##       ##       ##       ##          ##       ##     ## ##       ##       \n##       ##       ##       ##          ##       ##     ## ##       ##       \n######   ######   ######   ##          ######   ########  ######   ######   \n##       ##       ##       ##          ##       ##   ##   ##       ##       \n##       ##       ##       ##          ##       ##    ##  ##       ##       \n##       ######## ######## ########    ##       ##     ## ######## ######## \n\nGenre:Action\n Language:English\n IMDb:\n &lt;a href=&quot; http://www.imdb.com/title/tt1477675/&quot; rel=&quot;nofollow&quot; target=&quot;_NEW&quot;&gt; http://www.imdb.com/title/tt1477675/&lt;/a&gt;\n Source:BluRay.720p.DTS.x264-CHD\n Subtitles:Romana\n\n\n Format : MPEG-4\n Format profile : Base Media\n Codec ID : isom\n File size : 2.09 GiB\n Duration : 1h 28mn\n Overall bit rate : 3 369 Kbps\n\n\n Video\n Format profile : &lt;a class=&quot;__cf_email__&quot; href=&quot;/cdn-cgi/l/email-protection&quot; data-cfemail=&quot;622a0b050a222e564c53&quot;&gt;[email&amp;#160;protected]&lt;/a&gt;&lt;script cf-hash='f9e31' type=&quot;text/javascript&quot;&gt;\n/* &lt;![CDATA[ */!function(){try{var t=&quot;currentScript&quot;in document?document.currentScript:function(){for(var t=document.getElementsByTagName(&quot;script&quot;),e=t.length;e--;)if(t[e].getAttribute(&quot;cf-hash&quot;))return t[e]}();if(t&amp;&amp;t.previousSibling){var e,r,n,i,c=t.previousSibling,a=c.getAttribute(&quot;data-cfemail&quot;);if(a){for(e=&quot;&quot;,r=parseInt(a.substr(0,2),16),n=2;a.length-n;n+=2)i=parseInt(a.substr(n,2),16)^r,e+=String.fromCharCode(i);e=document.createTextNode(e),c.parentNode.replaceChild(e,c)}}}catch(u){}}();/* ]]&gt; */&lt;/script&gt;\n Format settings, CABAC : Yes\n Format settings, ReFrames : 3 frames\n Format settings, GOP : M=2, N=17\n Codec ID : avc1\n Codec ID/Info : Advanced Video Coding\n Duration : 1h 28mn\n Bit rate mode : Variable\n Bit rate : 3 000 Kbps\n Maximum bit rate : 17.1 Mbps\n Width : 1 280 pixels\n Height : 720 pixels\n Display aspect ratio : 16:9\n Frame rate mode : Constant\n Frame rate : 23.976 fps\n Color space : YUV\n Chroma subsampling : 4:2:0\n Bit depth : 8 bits\n Scan type : Progressive\n Bits/(Pixel*Frame) : 0.136\n Stream size : 1.81 GiB (87%)\n Writing library : x264\n\n\n Audio\n ID : 2\n Format : AAC\n Format/Info : Advanced Audio Codec\n Format version : Version 4\n Format profile : LC\n Format settings, SBR : No\n Codec ID : 40\n Duration : 1h 28mn\n Bit rate mode : Variable\n Bit rate : 445 Kbps\n Maximum bit rate : 538 Kbps\n Channel(s) : 6 channels\n Channel positions : Front: L C R, Side: L R, LFE\n Sampling rate : 48.0 KHz\n Stream size : 282 MiB (13%)\n\n\n Plot:\n When big city detectives refuse to further investigate his kid brother's gang related murder, small town Sheriff Michael Spencer drops the badge and goes undercover to find his brother's killer and avenge his death.\n\n\n######## ######## ######## ##          ######## ########  ######## ######## \n##       ##       ##       ##          ##       ##     ## ##       ##       \n##       ##       ##       ##          ##       ##     ## ##       ##       \n######   ######   ######   ##          ######   ########  ######   ######   \n##       ##       ##       ##          ##       ##   ##   ##       ##       \n##       ##       ##       ##          ##       ##    ##  ##       ##       \n##       ######## ######## ########    ##       ##     ## ######## ######## ","torrent":{"xt":"urn:btih:ef05ccfb2c8b9a983e5fd6d0e81edfb136868e2a","amp;dn":"Blood.Out.2011.720p.BRRip.x264.Feel-Free","amp;tr":["udp%3A%2F%2Ftracker.openbittorrent.com%3A80","udp%3A%2F%2Fopen.demonii.com%3A1337","udp%3A%2F%2Ftracker.coppersurfer.tk%3A6969","udp%3A%2F%2Fexodus.desync.com%3A6969"],"infoHash":"ef05ccfb2c8b9a983e5fd6d0e81edfb136868e2a","infoHashBuffer":{"type":"Buffer","data":[239,5,204,251,44,139,154,152,62,95,214,208,232,30,223,177,54,134,142,42]},"announce":[],"urlList":[]}}